REM DIRINDEX 1\6,1\2\7,1\2\8,1\2\9,1\3\10,1\3\11,1\4\12,1\4\13,1\4\14,1\5\15,1\5\16,1\5\17
REM DIRNAME folder01,folder02,folder03,folder04,folder05,folder06,folder07,folder08,folder09,folder10,folder11,folder12,folder13,folder14,folder15,folder16,folder17
TITLE ""
FILE "3Q_t_0472-0487.mp3" MP3
  TRACK 01 AUDIO
    TITLE "10:cjc041_2551"
    INDEX 01 00:00:00
  TRACK 02 AUDIO
    TITLE "0:"
    INDEX 01 00:00:72
  TRACK 03 AUDIO
    TITLE "11:cjc041_2552"
    INDEX 01 00:01:50
  TRACK 04 AUDIO
    TITLE "0:"
    INDEX 01 00:02:65
  TRACK 05 AUDIO
    TITLE "10:cjc041_2553"
    INDEX 01 00:03:47
  TRACK 06 AUDIO
    TITLE "0:"
    INDEX 01 00:04:54
  TRACK 07 AUDIO
    TITLE "11:cjc041_2554"
    INDEX 01 00:05:34
  TRACK 08 AUDIO
    TITLE "0:"
    INDEX 01 00:08:05
  TRACK 09 AUDIO
    TITLE "10:cjc041_2555"
    INDEX 01 00:08:60
  TRACK 10 AUDIO
    TITLE "0:"
    INDEX 01 00:09:71
  TRACK 11 AUDIO
    TITLE "11:cjc041_2556"
    INDEX 01 00:10:47
  TRACK 12 AUDIO
    TITLE "0:"
    INDEX 01 00:11:44
  TRACK 13 AUDIO
    TITLE "10:cjc041_2557"
    INDEX 01 00:12:24
  TRACK 14 AUDIO
    TITLE "0:"
    INDEX 01 00:13:51
  TRACK 15 AUDIO
    TITLE "11:cjc041_2558"
    INDEX 01 00:14:29
  TRACK 16 AUDIO
    TITLE "0:"
    INDEX 01 00:15:54
  TRACK 17 AUDIO
    TITLE "10:cjc041_2559"
    INDEX 01 00:16:32
  TRACK 18 AUDIO
    TITLE "0:"
    INDEX 01 00:17:53
  TRACK 19 AUDIO
    TITLE "11:cjc041_2560"
    INDEX 01 00:18:27
  TRACK 20 AUDIO
    TITLE "0:"
    INDEX 01 00:19:44
  TRACK 21 AUDIO
    TITLE "10:cjc041_2561"
    INDEX 01 00:20:20
  TRACK 22 AUDIO
    TITLE "0:"
    INDEX 01 00:21:27
  TRACK 23 AUDIO
    TITLE "11:cjc041_2562"
    INDEX 01 00:22:07
  TRACK 24 AUDIO
    TITLE "0:"
    INDEX 01 00:22:74
  TRACK 25 AUDIO
    TITLE "10:cjc041_2563"
    INDEX 01 00:23:50
  TRACK 26 AUDIO
    TITLE "0:"
    INDEX 01 00:24:53
  TRACK 27 AUDIO
    TITLE "11:cjc041_2564"
    INDEX 01 00:25:33
  TRACK 28 AUDIO
    TITLE "0:"
    INDEX 01 00:26:32
  TRACK 29 AUDIO
    TITLE "10:cjc041_2565"
    INDEX 01 00:27:12
  TRACK 30 AUDIO
    TITLE "0:"
    INDEX 01 00:28:35
  TRACK 31 AUDIO
    TITLE "11:cjc041_2566"
    INDEX 01 00:29:13
  TRACK 32 AUDIO
    TITLE "0:"
    INDEX 01 00:30:36
  TRACK 33 AUDIO
    TITLE "10:cjc041_2567"
    INDEX 01 00:31:14
  TRACK 34 AUDIO
    TITLE "0:"
    INDEX 01 00:32:27
  TRACK 35 AUDIO
    TITLE "11:cjc041_2568"
    INDEX 01 00:33:05
  TRACK 36 AUDIO
    TITLE "0:"
    INDEX 01 00:34:26
  TRACK 37 AUDIO
    TITLE "10:cjc041_2569"
    INDEX 01 00:35:02
  TRACK 38 AUDIO
    TITLE "0:"
    INDEX 01 00:36:21
  TRACK 39 AUDIO
    TITLE "11:cjc041_2570"
    INDEX 01 00:36:74
  TRACK 40 AUDIO
    TITLE "0:"
    INDEX 01 00:38:69
  TRACK 41 AUDIO
    TITLE "10:cjc041_2571"
    INDEX 01 00:39:47
  TRACK 42 AUDIO
    TITLE "0:"
    INDEX 01 00:40:72
  TRACK 43 AUDIO
    TITLE "11:cjc041_2572"
    INDEX 01 00:41:45
  TRACK 44 AUDIO
    TITLE "0:"
    INDEX 01 00:42:47
  TRACK 45 AUDIO
    TITLE "10:cjc041_2573"
    INDEX 01 00:43:23
  TRACK 46 AUDIO
    TITLE "0:"
    INDEX 01 00:44:32
  TRACK 47 AUDIO
    TITLE "11:cjc041_2574"
    INDEX 01 00:45:12
  TRACK 48 AUDIO
    TITLE "0:"
    INDEX 01 00:46:27
  TRACK 49 AUDIO
    TITLE "10:cjc041_2575"
    INDEX 01 00:47:05
  TRACK 50 AUDIO
    TITLE "0:"
    INDEX 01 00:48:44
  TRACK 51 AUDIO
    TITLE "11:cjc041_2576"
    INDEX 01 00:49:20
  TRACK 52 AUDIO
    TITLE "0:"
    INDEX 01 00:50:54
  TRACK 53 AUDIO
    TITLE "10:cjc041_2577"
    INDEX 01 00:51:28
  TRACK 54 AUDIO
    TITLE "0:"
    INDEX 01 00:52:36
  TRACK 55 AUDIO
    TITLE "11:cjc041_2578"
    INDEX 01 00:53:13
  TRACK 56 AUDIO
    TITLE "0:"
    INDEX 01 00:55:26
  TRACK 57 AUDIO
    TITLE "10:cjc041_2579"
    INDEX 01 00:56:06
  TRACK 58 AUDIO
    TITLE "0:"
    INDEX 01 00:57:11
  TRACK 59 AUDIO
    TITLE "11:cjc041_2580"
    INDEX 01 00:57:66
  TRACK 60 AUDIO
    TITLE "0:"
    INDEX 01 00:58:69
  TRACK 61 AUDIO
    TITLE "10:cjc041_2581"
    INDEX 01 00:59:51
  TRACK 62 AUDIO
    TITLE "0:"
    INDEX 01 01:00:57
  TRACK 63 AUDIO
    TITLE "11:cjc041_2582"
    INDEX 01 01:01:34
  TRACK 64 AUDIO
    TITLE "0:"
    INDEX 01 01:02:30
